<svg viewBox="0 0 650 180" width="100%" height="100%" xmlns="http://www.w3.org/2000/svg">
  <defs>
    <!-- Soft Neon Glow Filter -->
    <filter id="glow" x="-20%" y="-20%" width="140%" height="140%">
      <feGaussianBlur stdDeviation="12.857142857142858" result="blur" />
      <feMerge>
        <feMergeNode in="blur" />
        <feMergeNode in="SourceGraphic" />
      </feMerge>
    </filter>

    <!-- Visual Gradients mapping color themes -->
    <linearGradient id="bgGrad" x1="0%" y1="0%" x2="100%" y2="100%">
      <stop offset="0%" stop-color="#0c0c0e" />
      <stop offset="100%" stop-color="#1e1e24" />
    </linearGradient>

    <linearGradient id="bannerBgGrad" x1="0%" y1="0%" x2="100%" y2="100%">
      <stop offset="0%" stop-color="#090915" stroke-opacity="0.6"/>
      <stop offset="100%" stop-color="#101026" stroke-opacity="0.9"/>
    </linearGradient>

    <linearGradient id="accentGrad" x1="0%" y1="100%" x2="100%" y2="0%">
      <stop offset="0%" stop-color="#ffffff" />
      <stop offset="100%" stop-color="#94a3b8" />
    </linearGradient>

    <linearGradient id="tertiaryGrad" x1="0%" y1="0%" x2="0%" y2="100%">
      <stop offset="0%" stop-color="#cbd5e1" stop-opacity="0.9" />
      <stop offset="100%" stop-color="#94a3b8" stop-opacity="0.2" />
    </linearGradient>
  </defs>

  <!-- Banner Outer Card with soft border -->
  <rect x="5" y="5" width="640" height="170" rx="16" fill="url(#bannerBgGrad)" stroke="#222543" stroke-width="1.5" />

  <!-- Embedded Logo Nested on Left -->
  <g transform="translate(35, 30) scale(0.24)">
    
  <path d="M 250,25 L 445,137.5 L 445,362.5 L 250,475 L 55,362.5 L 55,137.5 Z" fill="url(#bgGrad)" stroke="#334155" stroke-width="4" />
    
  <!-- Grid Dot Matrices -->
  <g opacity="0.12" fill="#ffffff">
    <circle cx="70" cy="205" r="2.5" />
    <circle cx="70" cy="250" r="2.5" />
    <circle cx="70" cy="295" r="2.5" />
    <circle cx="115" cy="115" r="2.5" />
    <circle cx="115" cy="160" r="2.5" />
    <circle cx="115" cy="205" r="2.5" />
    <circle cx="115" cy="250" r="2.5" />
    <circle cx="115" cy="295" r="2.5" />
    <circle cx="115" cy="340" r="2.5" />
    <circle cx="115" cy="385" r="2.5" />
    <circle cx="160" cy="115" r="2.5" />
    <circle cx="160" cy="160" r="2.5" />
    <circle cx="160" cy="205" r="2.5" />
    <circle cx="160" cy="250" r="2.5" />
    <circle cx="160" cy="295" r="2.5" />
    <circle cx="160" cy="340" r="2.5" />
    <circle cx="160" cy="385" r="2.5" />
    <circle cx="205" cy="70" r="2.5" />
    <circle cx="205" cy="115" r="2.5" />
    <circle cx="205" cy="160" r="2.5" />
    <circle cx="205" cy="205" r="2.5" />
    <circle cx="205" cy="250" r="2.5" />
    <circle cx="205" cy="295" r="2.5" />
    <circle cx="205" cy="340" r="2.5" />
    <circle cx="205" cy="385" r="2.5" />
    <circle cx="205" cy="430" r="2.5" />
    <circle cx="250" cy="70" r="2.5" />
    <circle cx="250" cy="115" r="2.5" />
    <circle cx="250" cy="160" r="2.5" />
    <circle cx="250" cy="205" r="2.5" />
    <circle cx="250" cy="250" r="2.5" />
    <circle cx="250" cy="295" r="2.5" />
    <circle cx="250" cy="340" r="2.5" />
    <circle cx="250" cy="385" r="2.5" />
    <circle cx="250" cy="430" r="2.5" />
    <circle cx="295" cy="70" r="2.5" />
    <circle cx="295" cy="115" r="2.5" />
    <circle cx="295" cy="160" r="2.5" />
    <circle cx="295" cy="205" r="2.5" />
    <circle cx="295" cy="250" r="2.5" />
    <circle cx="295" cy="295" r="2.5" />
    <circle cx="295" cy="340" r="2.5" />
    <circle cx="295" cy="385" r="2.5" />
    <circle cx="295" cy="430" r="2.5" />
    <circle cx="340" cy="115" r="2.5" />
    <circle cx="340" cy="160" r="2.5" />
    <circle cx="340" cy="205" r="2.5" />
    <circle cx="340" cy="250" r="2.5" />
    <circle cx="340" cy="295" r="2.5" />
    <circle cx="340" cy="340" r="2.5" />
    <circle cx="340" cy="385" r="2.5" />
    <circle cx="385" cy="115" r="2.5" />
    <circle cx="385" cy="160" r="2.5" />
    <circle cx="385" cy="205" r="2.5" />
    <circle cx="385" cy="250" r="2.5" />
    <circle cx="385" cy="295" r="2.5" />
    <circle cx="385" cy="340" r="2.5" />
    <circle cx="385" cy="385" r="2.5" />
    <circle cx="430" cy="205" r="2.5" />
    <circle cx="430" cy="250" r="2.5" />
    <circle cx="430" cy="295" r="2.5" />
  </g>
    <g transform="translate(250, 250) rotate(0) scale(1) translate(-250, -250)">
      <!-- Core Symbol: Portal Launch -->
    <polygon points="250,110 370,180 370,320 250,390 130,320 130,180" fill="none" stroke="url(#tertiaryGrad)" stroke-width="7" stroke-linecap="round" stroke-linejoin="round" stroke-dasharray="60, 20, 140, 40" opacity="0.8" />
    <circle cx="250" cy="250" r="110" fill="none" stroke="#ffffff" stroke-width="2.5" stroke-dasharray="10, 15, 60, 20" opacity="0.4" />
    <path d="M 180,240 L 255,240 L 225,290 L 330,225 L 245,225 L 275,175 Z" fill="url(#accentGrad)" stroke="#ffffff" stroke-width="2" filter="url(#glow)" />
    <line x1="350" y1="210" x2="390" y2="185" stroke="#ffffff" stroke-width="3.75" stroke-linecap="round" opacity="0.7" />
    <line x1="110" y1="290" x2="150" y2="265" stroke="#cbd5e1" stroke-width="2.5" stroke-linecap="round" opacity="0.5" />
    </g>
  </g>

  <!-- Title & Subtitle Metadata text -->
  <text x="180" y="90" font-family="'Space Grotesk', -apple-system, sans-serif" font-size="28px" font-weight="500" fill="#ffffff" letter-spacing="2px">App Mode Launcher</text>
  <text x="180" y="122" font-family="'JetBrains Mono', monospace" font-size="11px" font-weight="600" fill="#a1a1aa" letter-spacing="4px">LAUNCH SMARTER. FOCUS FASTER.</text>
  
  <!-- Tiny active indicator -->
  <circle cx="590" cy="25" r="4.5" fill="#ffffff" opacity="0.8" />
</svg>